<svg id="Layer_1" data-name="Layer 1" xmlns="http://www.w3.org/2000/svg" viewBox="0 0 67.24 42.172"><defs><style>.cls-1{fill:#dc312f;}.cls-2{fill:#930000;}</style></defs><title>Vol-Gas Logo</title><path class="cls-1" d="M11.457,22.983A22.315,22.315,0,0,1,12.664,17.2l3.468,1.437a1.17,1.17,0,1,0,.9-2.161l-3.474-1.439A22.137,22.137,0,0,1,24.005,4.528l1.441,3.479a1.17,1.17,0,1,0,2.161-.9L26.164,3.627a22.121,22.121,0,0,1,14.82-.018L39.548,7.076a1.17,1.17,0,1,0,2.161.9L43.147,4.5A22.133,22.133,0,0,1,53.653,14.95l-3.476,1.44a1.17,1.17,0,0,0,.448,2.25,1.157,1.157,0,0,0,.447-.089l3.484-1.443a22.111,22.111,0,0,1,1.231,5.875h2.345a24.561,24.561,0,0,0-49.02,0Z"/><polygon class="cls-1" points="36.464 22.983 42.089 15.108 31.065 22.983 36.464 22.983"/><path class="cls-1" d="M11.457,22.983A22.315,22.315,0,0,1,12.664,17.2l3.468,1.437a1.17,1.17,0,1,0,.9-2.161l-3.474-1.439A22.137,22.137,0,0,1,24.005,4.528l1.441,3.479a1.17,1.17,0,1,0,2.161-.9L26.164,3.627a22.121,22.121,0,0,1,14.82-.018L39.548,7.076a1.17,1.17,0,1,0,2.161.9L43.147,4.5A22.133,22.133,0,0,1,53.653,14.95l-3.476,1.44a1.17,1.17,0,0,0,.448,2.25,1.157,1.157,0,0,0,.447-.089l3.484-1.443a22.111,22.111,0,0,1,1.231,5.875h2.345a24.561,24.561,0,0,0-49.02,0Z"/><path class="cls-2" d="M5.724,42.113H3.242L.007,31.477H2.429l2.054,8.08L6.6,31.477H8.959Z"/><path class="cls-2" d="M17.1,31.418a2,2,0,0,1,2.1,2.1v6.559a2,2,0,0,1-2.1,2.1h-3.56a2,2,0,0,1-2.1-2.1V33.515a2,2,0,0,1,2.1-2.1Zm-.03,2.511a.452.452,0,0,0-.5-.5h-2.5a.452.452,0,0,0-.5.5v5.732a.453.453,0,0,0,.5.5h2.5a.452.452,0,0,0,.5-.5Z"/><path class="cls-2" d="M24.883,31.477V40.1h4.461v2.009H22.755V31.477Z"/><path class="cls-2" d="M42.8,33.929a.452.452,0,0,0-.5-.5H39.861a.452.452,0,0,0-.5.5v5.732a.452.452,0,0,0,.5.5H42.3a.452.452,0,0,0,.5-.5V38.08h-1.95V36.16h4.077v3.914a2,2,0,0,1-2.1,2.1h-3.5a2,2,0,0,1-2.1-2.1V33.515a2,2,0,0,1,2.1-2.1h3.5a2,2,0,0,1,2.1,2.1V34.9H42.8Z"/><path class="cls-2" d="M49.6,42.113H47.4l3.427-10.636H53.3l3.427,10.636h-2.29l-.694-2.393H50.305Zm1.3-4.4h2.275l-1.123-3.9Z"/><path class="cls-2" d="M64.4,33.929a.452.452,0,0,0-.5-.5H61.768a.452.452,0,0,0-.5.5v1c0,.325.177.429.5.5l2.748.591c1.152.251,2.127.945,2.127,2.127v1.92a2,2,0,0,1-2.1,2.1H61.236a2,2,0,0,1-2.1-2.1V38.715h2.069v.946a.452.452,0,0,0,.5.5h2.3a.453.453,0,0,0,.5-.5V38.538c0-.325-.178-.428-.5-.5l-2.747-.591c-1.152-.251-2.128-.946-2.128-2.127v-1.8a2,2,0,0,1,2.1-2.1h3.132a2,2,0,0,1,2.1,2.1v1.241H64.4Z"/><path class="cls-1" d="M5.724,42.113H3.242L.007,31.477H2.429l2.054,8.08L6.6,31.477H8.959Z"/><path class="cls-1" d="M17.1,31.418a2,2,0,0,1,2.1,2.1v6.559a2,2,0,0,1-2.1,2.1h-3.56a2,2,0,0,1-2.1-2.1V33.515a2,2,0,0,1,2.1-2.1Zm-.03,2.511a.452.452,0,0,0-.5-.5h-2.5a.452.452,0,0,0-.5.5v5.732a.453.453,0,0,0,.5.5h2.5a.452.452,0,0,0,.5-.5Z"/><path class="cls-1" d="M24.883,31.477V40.1h4.461v2.009H22.755V31.477Z"/><path class="cls-1" d="M42.8,33.929a.452.452,0,0,0-.5-.5H39.861a.452.452,0,0,0-.5.5v5.732a.452.452,0,0,0,.5.5H42.3a.452.452,0,0,0,.5-.5V38.08h-1.95V36.16h4.077v3.914a2,2,0,0,1-2.1,2.1h-3.5a2,2,0,0,1-2.1-2.1V33.515a2,2,0,0,1,2.1-2.1h3.5a2,2,0,0,1,2.1,2.1V34.9H42.8Z"/><path class="cls-1" d="M49.6,42.113H47.4l3.427-10.636H53.3l3.427,10.636h-2.29l-.694-2.393H50.305Zm1.3-4.4h2.275l-1.123-3.9Z"/><path class="cls-1" d="M64.4,33.929a.452.452,0,0,0-.5-.5H61.768a.452.452,0,0,0-.5.5v1c0,.325.177.429.5.5l2.748.591c1.152.251,2.127.945,2.127,2.127v1.92a2,2,0,0,1-2.1,2.1H61.236a2,2,0,0,1-2.1-2.1V38.715h2.069v.946a.452.452,0,0,0,.5.5h2.3a.453.453,0,0,0,.5-.5V38.538c0-.325-.178-.428-.5-.5l-2.747-.591c-1.152-.251-2.128-.946-2.128-2.127v-1.8a2,2,0,0,1,2.1-2.1h3.132a2,2,0,0,1,2.1,2.1v1.241H64.4Z"/><rect class="cls-1" y="25.656" width="67.24" height="2.139"/></svg>